<?xml version="1.0" encoding="UTF-8"?>
<svg viewBox="0 0 666.67 666.67" xmlns="http://www.w3.org/2000/svg">
 <g fill-rule="evenodd" stroke-width="1.25">
  <path d="m451.81 234.57l-96.012 95.294c54.962 26.486 85.698 65.634 98.44 102.94l98.692-98.6s-17.81-66.631-101.12-99.638z"/>
  <path d="m335.87 126.57l-94.504 93.798c2.084 29.271 28.392 75.142 93.318 100.6l95.642-94.757c-84.166-32.705-94.456-99.638-94.456-99.638z"/>
  <path d="m220.63 239.84l-96.895 96.112s5.779 61.781 94.514 99.44l98.973-98.088c-55.08-24.152-86.796-62.269-96.592-97.464z"/>
  <path d="m337.86 347.63l-98.718 97.948c85.338 38.339 98.92 103.51 98.92 103.51l98.123-98.12c-7.9997-34.657-37.673-76.491-98.325-103.34z"/>
 </g>
</svg>
